# xmcd CD database file
#
# Track frame offsets:
#	150
#	16095
#	34039
#	50055
#	64217
#	83804
#	102643
#	112307
#	132041
#	151685
#	170346
#	192849
#
# Disc length: 3242 seconds
#
# Revision: 2
# Processed by: cddbd v1.5.2PL0 Copyright (c) Steve Scherf et al.
# Submitted via: CDex 1.51
#
DISCID=9b0ca80c
DTITLE=Ben Andrews - Gallows Pole
DYEAR=2011
DGENRE=Blues
TTITLE0=C.C. Rider
TTITLE1=How Many More Years
TTITLE2=One Kind Favour
TTITLE3=Salty Dog
TTITLE4=Broke Down Engine
TTITLE5=Last Fair Deal Gone Down
TTITLE6=Butterfly
TTITLE7=Death Have No Mercy
TTITLE8=Stagolee
TTITLE9=Cocaine
TTITLE10=Mad With You Baby
TTITLE11=Gallows Pole
EXTD=YEAR: 2011
EXTT0=
EXTT1=
EXTT2=
EXTT3=
EXTT4=
EXTT5=
EXTT6=
EXTT7=
EXTT8=
EXTT9=
EXTT10=
EXTT11=
PLAYORDER=
